<svg width="291" height="68" viewBox="0 0 291 68" fill="none" xmlns="http://www.w3.org/2000/svg">
<path d="M31.248 31.8C31.3493 32.2813 31.5013 32.8767 31.704 33.586C31.9067 34.2953 32.122 35.0807 32.35 35.942C32.6033 36.8033 32.8693 37.728 33.148 38.716C33.452 39.704 33.7433 40.7173 34.022 41.756C34.022 40.4387 34.0093 39.0327 33.984 37.538C33.9587 36.018 33.9333 34.4727 33.908 32.902C33.8827 31.3313 33.8573 29.748 33.832 28.152C33.8067 26.5307 33.794 24.9727 33.794 23.478H38.126C38.05 25.4033 37.974 27.392 37.898 29.444C37.822 31.4707 37.7333 33.4973 37.632 35.524C37.5307 37.5253 37.404 39.5013 37.252 41.452C37.1253 43.4027 36.9733 45.252 36.796 47H32.92C32.3627 45.404 31.8053 43.694 31.248 41.87C30.6907 40.0207 30.1333 38.26 29.576 36.588C29.0187 38.184 28.436 39.9193 27.828 41.794C27.22 43.6687 26.6627 45.404 26.156 47H22.28C22.0773 45.252 21.9 43.4027 21.748 41.452C21.596 39.476 21.4567 37.4873 21.33 35.486C21.2287 33.4593 21.14 31.4327 21.064 29.406C20.988 27.354 20.9247 25.378 20.874 23.478H25.206C25.1807 24.9727 25.1553 26.518 25.13 28.114L25.054 32.902C25.0287 34.4727 25.0033 36.018 24.978 37.538C24.9527 39.0327 24.94 40.4387 24.94 41.756C25.168 40.9453 25.4213 40.0587 25.7 39.096C26.004 38.1333 26.2827 37.1833 26.536 36.246C26.8147 35.3087 27.068 34.4473 27.296 33.662C27.524 32.8767 27.7013 32.256 27.828 31.8H31.248Z" fill="#282828"/>
<path d="M57.05 23.478V27.354H50.856V47H46.144V27.354H39.95V23.478H57.05Z" fill="#282828"/>
<path d="M60.394 23.478V47H65.068V36.93H73.58V33.054H65.068V27.354H74.796V23.478H60.394Z" fill="#282828"/>
<path fill-rule="evenodd" clip-rule="evenodd" d="M94.936 38.032C94.936 39.4507 94.7333 40.7427 94.328 41.908C93.9227 43.048 93.3527 44.036 92.618 44.872C91.8833 45.708 90.9967 46.354 89.958 46.81C88.9447 47.266 87.8047 47.494 86.538 47.494C85.2713 47.494 84.1187 47.266 83.08 46.81C82.0667 46.354 81.18 45.708 80.42 44.872C79.6853 44.036 79.1153 43.048 78.71 41.908C78.3047 40.7427 78.102 39.4507 78.102 38.032C78.102 36.6387 78.3047 35.372 78.71 34.232C79.1407 33.0667 79.7233 32.0787 80.458 31.268C81.218 30.432 82.1173 29.7987 83.156 29.368C84.1947 28.912 85.322 28.684 86.538 28.684C87.7793 28.684 88.9067 28.912 89.92 29.368C90.9587 29.7987 91.8453 30.432 92.58 31.268C93.34 32.0787 93.9227 33.0667 94.328 34.232C94.7333 35.372 94.936 36.6387 94.936 38.032ZM82.852 38.07C82.852 39.666 83.1307 40.958 83.688 41.946C84.2707 42.934 85.1953 43.428 86.462 43.428C87.678 43.428 88.59 42.934 89.198 41.946C89.8313 40.958 90.148 39.666 90.148 38.07C90.148 36.474 89.8567 35.1947 89.274 34.232C88.7167 33.244 87.8047 32.75 86.538 32.75C85.322 32.75 84.3973 33.244 83.764 34.232C83.156 35.1947 82.852 36.474 82.852 38.07Z" fill="#282828"/>
<path d="M111.504 33.662C111.935 33.738 112.302 33.814 112.606 33.89L113.442 29.558C113.011 29.406 112.517 29.292 111.96 29.216C111.428 29.1147 110.896 29.0387 110.364 28.988C109.832 28.912 109.325 28.8613 108.844 28.836C108.388 28.8107 108.033 28.798 107.78 28.798C106.032 28.798 104.499 28.9373 103.182 29.216C101.89 29.4947 100.623 29.862 99.382 30.318V47H104.094V33.738C104.753 33.5607 105.399 33.4467 106.032 33.396C106.665 33.32 107.311 33.282 107.97 33.282C108.249 33.282 108.591 33.2947 108.996 33.32C109.401 33.3453 109.819 33.396 110.25 33.472C110.681 33.5227 111.099 33.586 111.504 33.662Z" fill="#282828"/>
<path d="M128.034 28.95C129.022 28.95 129.833 29.102 130.466 29.406C131.099 29.71 131.593 30.166 131.948 30.774C132.328 31.382 132.581 32.1547 132.708 33.092C132.835 34.004 132.898 35.0807 132.898 36.322V47H129.098V36.094C129.098 35.3847 129.047 34.8147 128.946 34.384C128.87 33.9533 128.756 33.624 128.604 33.396C128.477 33.168 128.313 33.016 128.11 32.94C127.933 32.864 127.743 32.826 127.54 32.826C127.312 32.826 127.071 32.8513 126.818 32.902C126.565 32.9273 126.337 32.9907 126.134 33.092C126.21 33.5733 126.273 34.1053 126.324 34.688C126.375 35.2707 126.4 35.9167 126.4 36.626V40.198H122.6V36.094C122.6 34.878 122.473 34.0293 122.22 33.548C121.992 33.0667 121.612 32.826 121.08 32.826C120.928 32.826 120.738 32.8387 120.51 32.864C120.307 32.8893 120.105 32.9273 119.902 32.978V47H116.102V29.824C117.09 29.5453 118.065 29.33 119.028 29.178C119.991 29.026 120.839 28.95 121.574 28.95C122.233 28.95 122.815 29.0387 123.322 29.216C123.854 29.368 124.31 29.634 124.69 30.014C125.121 29.7353 125.627 29.4947 126.21 29.292C126.793 29.064 127.401 28.95 128.034 28.95Z" fill="#282828"/>
<path d="M145.286 43.238C144.678 43.39 143.804 43.466 142.664 43.466C141.625 43.466 140.599 43.314 139.586 43.01C138.598 42.706 137.661 42.3767 136.774 42.022L136.052 45.936C136.711 46.2147 137.585 46.5313 138.674 46.886C139.763 47.2407 141.081 47.418 142.626 47.418C144.146 47.418 145.425 47.2787 146.464 47C147.503 46.7213 148.339 46.3413 148.972 45.86C149.631 45.3787 150.099 44.8087 150.378 44.15C150.657 43.4913 150.796 42.7947 150.796 42.06C150.796 41.1227 150.606 40.3373 150.226 39.704C149.846 39.0453 149.352 38.5133 148.744 38.108C148.161 37.6773 147.503 37.3227 146.768 37.044C146.033 36.7653 145.324 36.512 144.64 36.284C144.159 36.132 143.703 35.98 143.272 35.828C142.867 35.6507 142.499 35.4733 142.17 35.296C141.866 35.1187 141.613 34.9287 141.41 34.726C141.233 34.498 141.144 34.2447 141.144 33.966C141.144 33.6367 141.347 33.3327 141.752 33.054C142.183 32.75 142.993 32.598 144.184 32.598C145.324 32.598 146.35 32.75 147.262 33.054C148.174 33.3327 148.845 33.5353 149.276 33.662L149.998 29.71C149.263 29.3807 148.389 29.1273 147.376 28.95C146.388 28.7727 145.311 28.684 144.146 28.684C142.803 28.684 141.651 28.836 140.688 29.14C139.725 29.4187 138.927 29.824 138.294 30.356C137.686 30.8627 137.23 31.458 136.926 32.142C136.647 32.8007 136.508 33.51 136.508 34.27C136.508 35.2073 136.698 35.9927 137.078 36.626C137.458 37.234 137.939 37.7407 138.522 38.146C139.105 38.5513 139.751 38.8933 140.46 39.172C141.169 39.4253 141.866 39.6533 142.55 39.856C143.031 40.008 143.487 40.16 143.918 40.312C144.374 40.464 144.767 40.6287 145.096 40.806C145.451 40.958 145.717 41.148 145.894 41.376C146.097 41.604 146.198 41.8827 146.198 42.212C146.198 42.7187 145.894 43.0607 145.286 43.238Z" fill="#282828"/>
<path d="M163.182 18.438H167.894V51.27H163.182V18.438Z" fill="#282828"/>
<path fill-rule="evenodd" clip-rule="evenodd" d="M14 0C6.26801 0 0 6.26802 0 14V54C0 61.732 6.26802 68 14 68H179C186.732 68 193 61.732 193 54V14C193 6.26801 186.732 0 179 0H14ZM8 14C8 10.6863 10.6863 8 14 8H179C182.314 8 185 10.6863 185 14V54C185 57.3137 182.314 60 179 60H14C10.6863 60 8 57.3137 8 54V14Z" fill="#282828"/>
<path d="M231.362 33.13L230.602 37.31H227.562L228.36 33.13H231.362Z" fill="#282828"/>
<path fill-rule="evenodd" clip-rule="evenodd" d="M205 14C205 6.26801 211.268 0 219 0H277C284.732 0 291 6.26801 291 14V54C291 61.732 284.732 68 277 68H219C211.268 68 205 61.732 205 54V14ZM245.27 37.88C245.27 38.1333 245.283 38.3233 245.308 38.45H249.564C249.564 37.918 249.703 37.4113 249.982 36.93C250.286 36.4487 250.653 35.98 251.084 35.524C251.54 35.068 252.021 34.612 252.528 34.156C253.035 33.6747 253.503 33.168 253.934 32.636C254.39 32.104 254.757 31.534 255.036 30.926C255.34 30.318 255.492 29.6467 255.492 28.912C255.492 28.2787 255.378 27.62 255.15 26.936C254.947 26.2267 254.58 25.5807 254.048 24.998C253.516 24.4153 252.781 23.934 251.844 23.554C250.907 23.1487 249.716 22.946 248.272 22.946C247.107 22.946 245.929 23.098 244.738 23.402C243.547 23.706 242.509 24.1367 241.622 24.694L242.914 28.266C243.801 27.8353 244.624 27.506 245.384 27.278C246.144 27.0247 246.929 26.898 247.74 26.898C248.551 26.898 249.222 27.1007 249.754 27.506C250.286 27.886 250.552 28.456 250.552 29.216C250.552 29.8493 250.299 30.4447 249.792 31.002C249.285 31.534 248.741 32.0407 248.158 32.522C247.297 33.2313 246.6 34.0547 246.068 34.992C245.536 35.904 245.27 36.8667 245.27 37.88ZM249.906 46.62C250.565 46.0627 250.894 45.29 250.894 44.302C250.894 43.8207 250.805 43.39 250.628 43.01C250.451 42.6047 250.21 42.2753 249.906 42.022C249.627 41.7433 249.298 41.5407 248.918 41.414C248.538 41.262 248.145 41.186 247.74 41.186C247.335 41.186 246.942 41.262 246.562 41.414C246.182 41.5407 245.84 41.7433 245.536 42.022C245.232 42.2753 244.991 42.6047 244.814 43.01C244.637 43.39 244.548 43.8207 244.548 44.302C244.548 44.8087 244.637 45.252 244.814 45.632C244.991 46.012 245.232 46.3413 245.536 46.62C245.84 46.8987 246.182 47.1013 246.562 47.228C246.942 47.38 247.335 47.456 247.74 47.456C248.551 47.456 249.273 47.1773 249.906 46.62ZM226.346 23.478L225.244 29.254H220.684V33.13H224.484L223.686 37.31H220.684V41.186H222.964L221.862 47H225.738L226.802 41.186H229.842L228.74 47H232.616L233.718 41.186H238.354V37.31H234.44L235.238 33.13H238.354V29.254H235.998L237.1 23.478H233.224L232.122 29.254H229.082L230.222 23.478H226.346ZM270.198 29.71C270.198 30.622 270.173 31.4453 270.122 32.18C270.097 32.8893 270.046 33.586 269.97 34.27C269.919 34.9287 269.843 35.5873 269.742 36.246C269.666 36.9047 269.577 37.6393 269.476 38.45H265.6C265.473 37.6393 265.359 36.9047 265.258 36.246C265.182 35.562 265.106 34.8907 265.03 34.232C264.954 33.5733 264.891 32.8893 264.84 32.18C264.815 31.4453 264.802 30.622 264.802 29.71V23.478H270.198V29.71ZM270.654 44.302C270.654 45.29 270.325 46.0627 269.666 46.62C269.033 47.1773 268.311 47.456 267.5 47.456C266.689 47.456 265.955 47.1773 265.296 46.62C264.663 46.0627 264.346 45.29 264.346 44.302C264.346 43.3393 264.663 42.5793 265.296 42.022C265.955 41.4647 266.689 41.186 267.5 41.186C268.311 41.186 269.033 41.4647 269.666 42.022C270.325 42.5793 270.654 43.3393 270.654 44.302Z" fill="#282828"/>
</svg>
