<svg width="278" height="68" viewBox="0 0 278 68" fill="none" xmlns="http://www.w3.org/2000/svg">
<path d="M167.894 18.438H163.182V51.27H167.894V18.438Z" fill="#282828"/>
<path d="M31.704 33.586C31.5013 32.8767 31.3493 32.2813 31.248 31.8H27.828C27.7013 32.256 27.524 32.8767 27.296 33.662C27.068 34.4473 26.8147 35.3087 26.536 36.246C26.2827 37.1833 26.004 38.1333 25.7 39.096C25.4213 40.0587 25.168 40.9453 24.94 41.756C24.94 40.4387 24.9527 39.0327 24.978 37.538C25.0033 36.018 25.0287 34.4727 25.054 32.902L25.13 28.114C25.1553 26.518 25.1807 24.9727 25.206 23.478H20.874C20.9247 25.378 20.988 27.354 21.064 29.406C21.14 31.4327 21.2287 33.4593 21.33 35.486C21.4567 37.4873 21.596 39.476 21.748 41.452C21.9 43.4027 22.0773 45.252 22.28 47H26.156C26.6627 45.404 27.22 43.6687 27.828 41.794C28.436 39.9193 29.0187 38.184 29.576 36.588C30.1333 38.26 30.6907 40.0207 31.248 41.87C31.8053 43.694 32.3627 45.404 32.92 47H36.796C36.9733 45.252 37.1253 43.4027 37.252 41.452C37.404 39.5013 37.5307 37.5253 37.632 35.524C37.7333 33.4973 37.822 31.4707 37.898 29.444C37.974 27.392 38.05 25.4033 38.126 23.478H33.794C33.794 24.9727 33.8067 26.5307 33.832 28.152C33.8573 29.748 33.8827 31.3313 33.908 32.902C33.9333 34.4727 33.9587 36.018 33.984 37.538C34.0093 39.0327 34.022 40.4387 34.022 41.756C33.7433 40.7173 33.452 39.704 33.148 38.716C32.8693 37.728 32.6033 36.8033 32.35 35.942C32.122 35.0807 31.9067 34.2953 31.704 33.586Z" fill="#282828"/>
<path d="M57.05 27.354V23.478H39.95V27.354H46.144V47H50.856V27.354H57.05Z" fill="#282828"/>
<path d="M60.394 47V23.478H74.796V27.354H65.068V33.054H73.58V36.93H65.068V47H60.394Z" fill="#282828"/>
<path fill-rule="evenodd" clip-rule="evenodd" d="M94.328 41.908C94.7333 40.7427 94.936 39.4507 94.936 38.032C94.936 36.6387 94.7333 35.372 94.328 34.232C93.9227 33.0667 93.34 32.0787 92.58 31.268C91.8453 30.432 90.9587 29.7987 89.92 29.368C88.9067 28.912 87.7793 28.684 86.538 28.684C85.322 28.684 84.1947 28.912 83.156 29.368C82.1173 29.7987 81.218 30.432 80.458 31.268C79.7233 32.0787 79.1407 33.0667 78.71 34.232C78.3047 35.372 78.102 36.6387 78.102 38.032C78.102 39.4507 78.3047 40.7427 78.71 41.908C79.1153 43.048 79.6853 44.036 80.42 44.872C81.18 45.708 82.0667 46.354 83.08 46.81C84.1187 47.266 85.2713 47.494 86.538 47.494C87.8047 47.494 88.9447 47.266 89.958 46.81C90.9967 46.354 91.8833 45.708 92.618 44.872C93.3527 44.036 93.9227 43.048 94.328 41.908ZM83.688 41.946C83.1307 40.958 82.852 39.666 82.852 38.07C82.852 36.474 83.156 35.1947 83.764 34.232C84.3973 33.244 85.322 32.75 86.538 32.75C87.8047 32.75 88.7167 33.244 89.274 34.232C89.8567 35.1947 90.148 36.474 90.148 38.07C90.148 39.666 89.8313 40.958 89.198 41.946C88.59 42.934 87.678 43.428 86.462 43.428C85.1953 43.428 84.2707 42.934 83.688 41.946Z" fill="#282828"/>
<path d="M112.606 33.89C112.302 33.814 111.935 33.738 111.504 33.662C111.099 33.586 110.681 33.5227 110.25 33.472C109.819 33.396 109.401 33.3453 108.996 33.32C108.591 33.2947 108.249 33.282 107.97 33.282C107.311 33.282 106.665 33.32 106.032 33.396C105.399 33.4467 104.753 33.5607 104.094 33.738V47H99.382V30.318C100.623 29.862 101.89 29.4947 103.182 29.216C104.499 28.9373 106.032 28.798 107.78 28.798C108.033 28.798 108.388 28.8107 108.844 28.836C109.325 28.8613 109.832 28.912 110.364 28.988C110.896 29.0387 111.428 29.1147 111.96 29.216C112.517 29.292 113.011 29.406 113.442 29.558L112.606 33.89Z" fill="#282828"/>
<path d="M130.466 29.406C129.833 29.102 129.022 28.95 128.034 28.95C127.401 28.95 126.793 29.064 126.21 29.292C125.627 29.4947 125.121 29.7353 124.69 30.014C124.31 29.634 123.854 29.368 123.322 29.216C122.815 29.0387 122.233 28.95 121.574 28.95C120.839 28.95 119.991 29.026 119.028 29.178C118.065 29.33 117.09 29.5453 116.102 29.824V47H119.902V32.978C120.105 32.9273 120.307 32.8893 120.51 32.864C120.738 32.8387 120.928 32.826 121.08 32.826C121.612 32.826 121.992 33.0667 122.22 33.548C122.473 34.0293 122.6 34.878 122.6 36.094V40.198H126.4V36.626C126.4 35.9167 126.375 35.2707 126.324 34.688C126.273 34.1053 126.21 33.5733 126.134 33.092C126.337 32.9907 126.565 32.9273 126.818 32.902C127.071 32.8513 127.312 32.826 127.54 32.826C127.743 32.826 127.933 32.864 128.11 32.94C128.313 33.016 128.477 33.168 128.604 33.396C128.756 33.624 128.87 33.9533 128.946 34.384C129.047 34.8147 129.098 35.3847 129.098 36.094V47H132.898V36.322C132.898 35.0807 132.835 34.004 132.708 33.092C132.581 32.1547 132.328 31.382 131.948 30.774C131.593 30.166 131.099 29.71 130.466 29.406Z" fill="#282828"/>
<path d="M142.664 43.466C143.804 43.466 144.678 43.39 145.286 43.238C145.894 43.0607 146.198 42.7187 146.198 42.212C146.198 41.8827 146.097 41.604 145.894 41.376C145.717 41.148 145.451 40.958 145.096 40.806C144.767 40.6287 144.374 40.464 143.918 40.312C143.487 40.16 143.031 40.008 142.55 39.856C141.866 39.6533 141.169 39.4253 140.46 39.172C139.751 38.8933 139.105 38.5513 138.522 38.146C137.939 37.7407 137.458 37.234 137.078 36.626C136.698 35.9927 136.508 35.2073 136.508 34.27C136.508 33.51 136.647 32.8007 136.926 32.142C137.23 31.458 137.686 30.8627 138.294 30.356C138.927 29.824 139.725 29.4187 140.688 29.14C141.651 28.836 142.803 28.684 144.146 28.684C145.311 28.684 146.388 28.7727 147.376 28.95C148.389 29.1273 149.263 29.3807 149.998 29.71L149.276 33.662C148.845 33.5353 148.174 33.3327 147.262 33.054C146.35 32.75 145.324 32.598 144.184 32.598C142.993 32.598 142.183 32.75 141.752 33.054C141.347 33.3327 141.144 33.6367 141.144 33.966C141.144 34.2447 141.233 34.498 141.41 34.726C141.613 34.9287 141.866 35.1187 142.17 35.296C142.499 35.4733 142.867 35.6507 143.272 35.828C143.703 35.98 144.159 36.132 144.64 36.284C145.324 36.512 146.033 36.7653 146.768 37.044C147.503 37.3227 148.161 37.6773 148.744 38.108C149.352 38.5133 149.846 39.0453 150.226 39.704C150.606 40.3373 150.796 41.1227 150.796 42.06C150.796 42.7947 150.657 43.4913 150.378 44.15C150.099 44.8087 149.631 45.3787 148.972 45.86C148.339 46.3413 147.503 46.7213 146.464 47C145.425 47.2787 144.146 47.418 142.626 47.418C141.081 47.418 139.763 47.2407 138.674 46.886C137.585 46.5313 136.711 46.2147 136.052 45.936L136.774 42.022C137.661 42.3767 138.598 42.706 139.586 43.01C140.599 43.314 141.625 43.466 142.664 43.466Z" fill="#282828"/>
<path d="M218.362 33.13L217.602 37.31H214.562L215.36 33.13H218.362Z" fill="#282828"/>
<path fill-rule="evenodd" clip-rule="evenodd" d="M14 0C6.26801 0 0 6.26802 0 14V54C0 61.732 6.26802 68 14 68H264C271.732 68 278 61.732 278 54V14C278 6.26801 271.732 0 264 0H14ZM8 14C8 10.6863 10.6863 8 14 8H185V60H14C10.6863 60 8 57.3137 8 54V14ZM232.27 37.88C232.27 38.1333 232.283 38.3233 232.308 38.45H236.564C236.564 37.918 236.703 37.4113 236.982 36.93C237.286 36.4487 237.653 35.98 238.084 35.524C238.54 35.068 239.021 34.612 239.528 34.156C240.035 33.6747 240.503 33.168 240.934 32.636C241.39 32.104 241.757 31.534 242.036 30.926C242.34 30.318 242.492 29.6467 242.492 28.912C242.492 28.2787 242.378 27.62 242.15 26.936C241.947 26.2267 241.58 25.5807 241.048 24.998C240.516 24.4153 239.781 23.934 238.844 23.554C237.907 23.1487 236.716 22.946 235.272 22.946C234.107 22.946 232.929 23.098 231.738 23.402C230.547 23.706 229.509 24.1367 228.622 24.694L229.914 28.266C230.801 27.8353 231.624 27.506 232.384 27.278C233.144 27.0247 233.929 26.898 234.74 26.898C235.551 26.898 236.222 27.1007 236.754 27.506C237.286 27.886 237.552 28.456 237.552 29.216C237.552 29.8493 237.299 30.4447 236.792 31.002C236.285 31.534 235.741 32.0407 235.158 32.522C234.297 33.2313 233.6 34.0547 233.068 34.992C232.536 35.904 232.27 36.8667 232.27 37.88ZM236.906 46.62C237.565 46.0627 237.894 45.29 237.894 44.302C237.894 43.8207 237.805 43.39 237.628 43.01C237.451 42.6047 237.21 42.2753 236.906 42.022C236.627 41.7433 236.298 41.5407 235.918 41.414C235.538 41.262 235.145 41.186 234.74 41.186C234.335 41.186 233.942 41.262 233.562 41.414C233.182 41.5407 232.84 41.7433 232.536 42.022C232.232 42.2753 231.991 42.6047 231.814 43.01C231.637 43.39 231.548 43.8207 231.548 44.302C231.548 44.8087 231.637 45.252 231.814 45.632C231.991 46.012 232.232 46.3413 232.536 46.62C232.84 46.8987 233.182 47.1013 233.562 47.228C233.942 47.38 234.335 47.456 234.74 47.456C235.551 47.456 236.273 47.1773 236.906 46.62ZM213.346 23.478L212.244 29.254H207.684V33.13H211.484L210.686 37.31H207.684V41.186H209.964L208.862 47H212.738L213.802 41.186H216.842L215.74 47H219.616L220.718 41.186H225.354V37.31H221.44L222.238 33.13H225.354V29.254H222.998L224.1 23.478H220.224L219.122 29.254H216.082L217.222 23.478H213.346ZM257.198 29.71C257.198 30.622 257.173 31.4453 257.122 32.18C257.097 32.8893 257.046 33.586 256.97 34.27C256.919 34.9287 256.843 35.5873 256.742 36.246C256.666 36.9047 256.577 37.6393 256.476 38.45H252.6C252.473 37.6393 252.359 36.9047 252.258 36.246C252.182 35.562 252.106 34.8907 252.03 34.232C251.954 33.5733 251.891 32.8893 251.84 32.18C251.815 31.4453 251.802 30.622 251.802 29.71V23.478H257.198V29.71ZM257.654 44.302C257.654 45.29 257.325 46.0627 256.666 46.62C256.033 47.1773 255.311 47.456 254.5 47.456C253.689 47.456 252.955 47.1773 252.296 46.62C251.663 46.0627 251.346 45.29 251.346 44.302C251.346 43.3393 251.663 42.5793 252.296 42.022C252.955 41.4647 253.689 41.186 254.5 41.186C255.311 41.186 256.033 41.4647 256.666 42.022C257.325 42.5793 257.654 43.3393 257.654 44.302Z" fill="#282828"/>
</svg>
