<svg width="68" height="68" viewBox="0 0 68 68" fill="none" xmlns="http://www.w3.org/2000/svg">
<path fill-rule="evenodd" clip-rule="evenodd" d="M11.0698 0C4.9561 0 0 6.26801 0 14V54C0 61.732 4.9561 68 11.0698 68H56.9302C63.0439 68 68 61.732 68 54V14C68 6.26801 63.0439 0 56.9302 0H11.0698ZM31.308 38.45C31.2827 38.3233 31.27 38.1333 31.27 37.88C31.27 36.8667 31.536 35.904 32.068 34.992C32.6 34.0547 33.2967 33.2313 34.158 32.522C34.7407 32.0407 35.2854 31.534 35.792 31.002C36.2987 30.4447 36.552 29.8493 36.552 29.216C36.552 28.456 36.286 27.886 35.754 27.506C35.222 27.1007 34.5507 26.898 33.74 26.898C32.9294 26.898 32.144 27.0247 31.384 27.278C30.624 27.506 29.8007 27.8353 28.914 28.266L27.622 24.694C28.5087 24.1367 29.5474 23.706 30.738 23.402C31.9287 23.098 33.1067 22.946 34.272 22.946C35.716 22.946 36.9067 23.1487 37.844 23.554C38.7814 23.934 39.516 24.4153 40.048 24.998C40.58 25.5807 40.9474 26.2267 41.15 26.936C41.378 27.62 41.492 28.2787 41.492 28.912C41.492 29.6467 41.34 30.318 41.036 30.926C40.7574 31.534 40.39 32.104 39.934 32.636C39.5034 33.168 39.0347 33.6747 38.528 34.156C38.0214 34.612 37.54 35.068 37.084 35.524C36.6534 35.98 36.286 36.4487 35.982 36.93C35.7034 37.4113 35.564 37.918 35.564 38.45H31.308ZM36.894 44.302C36.894 45.29 36.5647 46.0627 35.906 46.62C35.2727 47.1773 34.5507 47.456 33.74 47.456C33.3347 47.456 32.942 47.38 32.562 47.228C32.182 47.1013 31.84 46.8987 31.536 46.62C31.232 46.3413 30.9914 46.012 30.814 45.632C30.6367 45.252 30.548 44.8087 30.548 44.302C30.548 43.8207 30.6367 43.39 30.814 43.01C30.9914 42.6047 31.232 42.2753 31.536 42.022C31.84 41.7433 32.182 41.5407 32.562 41.414C32.942 41.262 33.3347 41.186 33.74 41.186C34.1454 41.186 34.538 41.262 34.918 41.414C35.298 41.5407 35.6274 41.7433 35.906 42.022C36.21 42.2753 36.4507 42.6047 36.628 43.01C36.8054 43.39 36.894 43.8207 36.894 44.302ZM11.244 29.254L12.346 23.478H16.222L15.082 29.254H18.122L19.224 23.478H23.1L21.998 29.254H24.354V33.13H21.238L20.44 37.31H24.354V41.186H19.718L18.616 47H14.74L15.842 41.186H12.802L11.738 47H7.86202L8.96402 41.186H6.68402V37.31H9.68602L10.484 33.13H6.68402V29.254H11.244ZM16.602 37.31L17.362 33.13H14.36L13.562 37.31H16.602ZM56.122 32.18C56.1727 31.4453 56.198 30.622 56.198 29.71V23.478H50.802V29.71C50.802 30.622 50.8147 31.4453 50.84 32.18C50.8907 32.8893 50.954 33.5733 51.03 34.232C51.106 34.8907 51.182 35.562 51.258 36.246C51.3594 36.9047 51.4734 37.6393 51.6 38.45H55.476C55.5774 37.6393 55.666 36.9047 55.742 36.246C55.8434 35.5873 55.9194 34.9287 55.97 34.27C56.046 33.586 56.0967 32.8893 56.122 32.18ZM55.666 46.62C56.3247 46.0627 56.654 45.29 56.654 44.302C56.654 43.3393 56.3247 42.5793 55.666 42.022C55.0327 41.4647 54.3107 41.186 53.5 41.186C52.6894 41.186 51.9547 41.4647 51.296 42.022C50.6627 42.5793 50.346 43.3393 50.346 44.302C50.346 45.29 50.6627 46.0627 51.296 46.62C51.9547 47.1773 52.6894 47.456 53.5 47.456C54.3107 47.456 55.0327 47.1773 55.666 46.62Z" fill="#282828"/>
</svg>
